<svg width="24" height="24" viewBox="0 0 24 24" fill="none" xmlns="http://www.w3.org/2000/svg">
    <path fill-rule="evenodd" clip-rule="evenodd"
          d="M15.5173 1.43726C16.6841 1.28806 17.8645 1.76518 19.0639 2.89373L19.0653 2.89503C20.2687 4.03312 20.8166 5.18762 20.7344 6.3635C20.655 7.49975 19.9963 8.46146 19.2451 9.25501M19.2451 9.25501L11.0392 17.9407C10.8079 18.1926 10.4964 18.406 10.2011 18.5639C9.902 18.7238 9.55604 18.8606 9.23125 18.9184L9.22625 18.9193L6.0074 19.469C5.22684 19.6036 4.47834 19.4086 3.94514 18.9029C3.41268 18.398 3.1774 17.6616 3.26456 16.8771L3.26482 16.8749L3.63642 13.6208C3.67958 13.2971 3.79979 12.9468 3.9415 12.643C4.0827 12.3402 4.27535 12.0191 4.50334 11.7764L4.5048 11.7749L12.7148 3.08489C13.4663 2.29102 14.3899 1.58143 15.5173 1.43726M13.8046 4.11556C13.8045 4.11569 13.8048 4.11542 13.8046 4.11556L5.59661 12.8035C5.59644 12.8036 5.59678 12.8033 5.59661 12.8035C5.51464 12.8909 5.40203 13.0602 5.30094 13.2769C5.20168 13.4898 5.14206 13.6867 5.12419 13.8133L4.75539 17.0428C4.75535 17.0431 4.75531 17.0435 4.75527 17.0438C4.71276 17.4287 4.83239 17.6771 4.97731 17.8145C5.12161 17.9513 5.37311 18.0563 5.75254 17.9909L5.7537 17.9907L8.97081 17.4412C9.09608 17.4185 9.2891 17.3505 9.49385 17.241C9.70144 17.1301 9.85759 17.0104 9.93576 16.9246L9.94471 16.9148L18.1548 8.22489C18.8235 7.51855 19.195 6.87489 19.238 6.2589C19.2783 5.68244 19.0413 4.93718 18.0355 3.98564C17.0352 3.04465 16.2807 2.85185 15.7076 2.92514C15.0952 3.00345 14.4729 3.40968 13.8046 4.11556Z"
          fill="black"/>
    <path fill-rule="evenodd" clip-rule="evenodd"
          d="M11.7745 4.30885C12.1838 4.24509 12.5673 4.52518 12.6311 4.93446C13.0082 7.35508 14.9727 9.20768 17.4152 9.45369C17.8273 9.4952 18.1277 9.86294 18.0862 10.2751C18.0447 10.6872 17.677 10.9876 17.2648 10.9461C14.1473 10.6321 11.6318 8.26475 11.1489 5.16537C11.0852 4.75609 11.3653 4.37262 11.7745 4.30885Z"
          fill="black"/>
    <path fill-rule="evenodd" clip-rule="evenodd"
          d="M2.25 22C2.25 21.5858 2.58579 21.25 3 21.25H21C21.4142 21.25 21.75 21.5858 21.75 22C21.75 22.4142 21.4142 22.75 21 22.75H3C2.58579 22.75 2.25 22.4142 2.25 22Z"
          fill="black"/>
</svg>
